<svg width="155" height="146" viewBox="0 0 155 146" fill="none" xmlns="http://www.w3.org/2000/svg">
<path d="M271.53 216.667C269.586 215.576 267.673 214.429 265.794 213.229C259.088 208.917 252.67 204.173 246.579 199.027C231.144 186.073 211.536 165.756 194.46 136.198C177.398 106.627 169.614 79.4981 166.11 59.64C164.698 51.788 163.8 43.8525 163.419 35.8837C163.317 33.6628 163.278 31.4394 163.301 29.2162C163.314 28.4287 163.406 26.8275 163.419 26.3943C138.392 25.2253 113.556 31.2804 91.875 43.8375C70.1764 56.3198 52.5225 74.7755 41.0156 97.0068L43.4962 98.3587C44.8962 99.1375 46.8081 100.284 49.2319 101.797C54.0487 104.869 60.7294 109.515 68.4469 115.999C83.8819 128.966 103.491 149.271 120.553 178.841C137.629 208.399 145.412 235.541 148.929 255.386C150.675 265.322 151.357 273.433 151.607 279.142C151.738 281.991 151.738 284.248 151.725 285.823V288.645C176.705 289.782 201.487 283.723 223.125 271.189C244.81 258.722 262.458 240.29 273.971 218.085L271.53 216.667Z" fill="#BCD548" fill-opacity="0.15"/>
<path d="M132.038 286.269C132.062 284.178 132.032 282.086 131.946 279.996C131.624 272.893 130.821 265.82 129.544 258.825C126.381 240.857 119.267 215.959 103.53 188.698C87.78 161.424 69.7725 142.826 55.7944 131.079C50.3812 126.481 44.6632 122.254 38.6794 118.427C36.5925 117.114 34.3482 115.815 33.2719 115.211C27.2248 132.915 25.0401 151.709 26.8648 170.328C28.6896 188.946 34.4815 206.958 43.8507 223.151C53.1893 239.361 65.8917 253.383 81.1033 264.273C96.3149 275.162 113.683 282.654 132.038 286.269ZM183.002 28.77C182.978 30.866 183.004 32.9622 183.081 35.0569C183.304 39.9788 183.908 47.2238 185.496 56.2144C188.659 74.1956 195.773 99.0806 211.509 126.354C227.259 153.615 245.267 172.213 259.245 183.96C266.228 189.827 272.199 193.961 276.36 196.613C278.447 197.938 280.691 199.238 281.768 199.828C287.813 182.126 289.996 163.335 288.172 144.719C286.347 126.102 280.556 108.092 271.189 91.9013C261.85 75.6912 249.148 61.6695 233.936 50.7799C218.725 39.8902 201.357 32.3852 183.002 28.77Z" fill="#BCD548" fill-opacity="0.15"/>
</svg>
