<svg width="245" height="224" viewBox="0 0 245 224" fill="none" xmlns="http://www.w3.org/2000/svg">
<path d="M271.53 170.667C269.586 169.576 267.673 168.429 265.794 167.229C259.088 162.917 252.67 158.173 246.579 153.027C231.144 140.073 211.536 119.756 194.46 90.1981C177.398 60.6275 169.614 33.4981 166.11 13.64C164.698 5.78806 163.8 -2.14749 163.419 -10.1162C163.317 -12.3372 163.278 -14.5606 163.301 -16.7837C163.314 -17.5712 163.406 -19.1725 163.419 -19.6056C138.392 -20.7747 113.556 -14.7195 91.875 -2.1625C70.1764 10.3199 52.5225 28.7756 41.0156 51.0069L43.4962 52.3588C44.8962 53.1375 46.8081 54.2838 49.2319 55.7975C54.0487 58.8688 60.7294 63.515 68.4469 69.9988C83.8819 82.9663 103.491 103.271 120.553 132.841C137.629 162.399 145.412 189.541 148.929 209.386C150.675 219.322 151.357 227.433 151.607 233.142C151.738 235.991 151.738 238.248 151.725 239.823V242.645C176.705 243.782 201.487 237.723 223.125 225.189C244.81 212.722 262.458 194.29 273.971 172.085L271.53 170.667Z" fill="#C04C4A" fill-opacity="0.2"/>
<path d="M132.038 240.269C132.062 238.178 132.032 236.086 131.946 233.996C131.624 226.893 130.821 219.82 129.544 212.825C126.381 194.857 119.267 169.959 103.53 142.698C87.78 115.424 69.7725 96.8262 55.7944 85.0794C50.3812 80.4808 44.6632 76.2536 38.6794 72.4269C36.5925 71.1144 34.3482 69.815 33.2719 69.2112C27.2248 86.915 25.0401 105.709 26.8648 124.328C28.6896 142.946 34.4815 160.958 43.8507 177.151C53.1893 193.361 65.8917 207.383 81.1033 218.273C96.3149 229.162 113.683 236.654 132.038 240.269ZM183.002 -17.23C182.978 -15.1341 183.004 -13.0378 183.081 -10.9431C183.304 -6.02126 183.908 1.22374 185.496 10.2144C188.659 28.1956 195.773 53.0806 211.509 80.3544C227.259 107.615 245.267 126.213 259.245 137.96C266.228 143.827 272.199 147.961 276.36 150.612C278.447 151.938 280.691 153.238 281.768 153.828C287.813 136.126 289.996 117.335 288.172 98.7185C286.347 80.1021 280.556 62.0924 271.189 45.9012C261.85 29.6912 249.148 15.6695 233.936 4.77984C218.725 -6.10982 201.357 -13.6148 183.002 -17.23Z" fill="#C04C4A" fill-opacity="0.2"/>
</svg>
